<svg xmlns="http://www.w3.org/2000/svg" viewBox="0 0 248.36 21.43"><defs><style>.cls-1{fill:#6666ad;}</style></defs><title>crappyQuotesРесурс 11</title><g id="Слой_2" data-name="Слой 2"><g id="palette_hidden"><path class="cls-1" d="M248.36,1.47A1.46,1.46,0,0,0,246.9,0h-4.76a1.47,1.47,0,0,0-1.46,1.5A8.16,8.16,0,0,1,238.33,7a1.64,1.64,0,0,1-.35.29c-5.68,3.59-11.62-.41-11.62-5.79h0A1.46,1.46,0,0,0,224.91,0h-2.77a1.47,1.47,0,0,0-1.46,1.5A8.16,8.16,0,0,1,218.33,7a1.64,1.64,0,0,1-.35.29c-5.68,3.59-11.62-.41-11.62-5.79h0A1.46,1.46,0,0,0,204.91,0h-2.77a1.47,1.47,0,0,0-1.46,1.5A8.16,8.16,0,0,1,198.33,7a1.64,1.64,0,0,1-.35.29c-5.68,3.59-11.62-.41-11.62-5.79h0A1.46,1.46,0,0,0,184.91,0h-2.77a1.47,1.47,0,0,0-1.46,1.5A8.16,8.16,0,0,1,178.33,7a1.64,1.64,0,0,1-.35.29c-5.68,3.59-11.62-.41-11.62-5.79h0A1.46,1.46,0,0,0,164.91,0h-2.77a1.47,1.47,0,0,0-1.46,1.5A8.16,8.16,0,0,1,158.33,7a1.64,1.64,0,0,1-.35.29c-5.68,3.59-11.62-.41-11.62-5.79h0A1.46,1.46,0,0,0,144.91,0h-2.77a1.47,1.47,0,0,0-1.46,1.5A8.16,8.16,0,0,1,138.33,7a1.64,1.64,0,0,1-.35.29c-5.68,3.59-11.62-.41-11.62-5.79h0A1.46,1.46,0,0,0,124.91,0h-2.77a1.47,1.47,0,0,0-1.46,1.5A8.16,8.16,0,0,1,118.33,7a1.64,1.64,0,0,1-.35.29c-5.68,3.59-11.62-.41-11.62-5.79h0A1.46,1.46,0,0,0,104.91,0h-2.77a1.47,1.47,0,0,0-1.46,1.5A8.16,8.16,0,0,1,98.33,7a1.64,1.64,0,0,1-.35.29C92.3,10.9,86.36,6.9,86.36,1.52h0A1.46,1.46,0,0,0,84.91,0H82.14a1.47,1.47,0,0,0-1.46,1.5A8.16,8.16,0,0,1,78.33,7a1.64,1.64,0,0,1-.35.29C72.3,10.9,66.36,6.9,66.36,1.52h0A1.46,1.46,0,0,0,64.91,0H62.14a1.47,1.47,0,0,0-1.46,1.5A8.16,8.16,0,0,1,58.33,7a1.64,1.64,0,0,1-.35.29C52.3,10.9,46.36,6.9,46.36,1.52h0A1.46,1.46,0,0,0,44.91,0H42.14a1.47,1.47,0,0,0-1.46,1.5A8.16,8.16,0,0,1,38.33,7a1.64,1.64,0,0,1-.35.29C32.3,10.9,26.36,6.9,26.36,1.52h0A1.46,1.46,0,0,0,24.91,0H22.14a1.47,1.47,0,0,0-1.46,1.5A8.16,8.16,0,0,1,18.33,7a1.64,1.64,0,0,1-.35.29C12.3,10.9,6.36,6.9,6.36,1.52V1.47A1.46,1.46,0,0,0,4.9,0H1.47A1.47,1.47,0,0,0,0,1.47v20H248.36Z"/></g></g></svg>