<svg width="222" height="222" viewBox="0 0 222 222" fill="none" xmlns="http://www.w3.org/2000/svg">
<path fill-rule="evenodd" clip-rule="evenodd" d="M11.9306 14.2222C16.1494 14.2222 19.5694 10.8022 19.5694 6.58333C19.5694 4.86366 19.0012 3.2767 18.0422 2H27.9716C27.0127 3.2767 26.4444 4.86365 26.4444 6.58332C26.4444 10.8022 29.8645 14.2222 34.0833 14.2222C38.3022 14.2222 41.7222 10.8022 41.7222 6.58332C41.7222 4.86365 41.154 3.2767 40.195 2H50.1244C49.1654 3.2767 48.5972 4.86365 48.5972 6.58332C48.5972 10.8022 52.0172 14.2222 56.2361 14.2222C60.4549 14.2222 63.875 10.8022 63.875 6.58332C63.875 4.86365 63.3067 3.2767 62.3478 2H72.2772C71.3182 3.2767 70.75 4.86365 70.75 6.58332C70.75 10.8022 74.17 14.2222 78.3889 14.2222C82.6077 14.2222 86.0278 10.8022 86.0278 6.58332C86.0278 4.86365 85.4595 3.2767 84.5005 2H94.43C93.471 3.2767 92.9028 4.86365 92.9028 6.58332C92.9028 10.8022 96.3228 14.2222 100.542 14.2222C104.76 14.2222 108.181 10.8022 108.181 6.58332C108.181 4.86365 107.612 3.2767 106.653 2H116.583C115.624 3.2767 115.056 4.86365 115.056 6.58332C115.056 10.8022 118.476 14.2222 122.694 14.2222C126.913 14.2222 130.333 10.8022 130.333 6.58332C130.333 4.86365 129.765 3.2767 128.806 2H138.736C137.777 3.2767 137.208 4.86365 137.208 6.58332C137.208 10.8022 140.628 14.2222 144.847 14.2222C149.066 14.2222 152.486 10.8022 152.486 6.58332C152.486 4.86365 151.918 3.2767 150.959 2H160.888C159.929 3.2767 159.361 4.86365 159.361 6.58332C159.361 10.8022 162.781 14.2222 167 14.2222C171.219 14.2222 174.639 10.8022 174.639 6.58332C174.639 4.86365 174.071 3.2767 173.112 2H183.041C182.082 3.2767 181.514 4.86365 181.514 6.58332C181.514 10.8022 184.934 14.2222 189.153 14.2222C193.372 14.2222 196.792 10.8022 196.792 6.58332C196.792 4.86365 196.223 3.2767 195.264 2H205.194C204.235 3.2767 203.667 4.86365 203.667 6.58332C203.667 10.8022 207.087 14.2222 211.306 14.2222C215.524 14.2222 218.944 10.8022 218.944 6.58332C218.944 4.86365 218.376 3.2767 217.417 2H222V222H2V2H5.81889C4.85992 3.2767 4.29167 4.86366 4.29167 6.58333C4.29167 10.8022 7.71171 14.2222 11.9306 14.2222Z" fill="#8F918F"/>
<path class = "leaflet" fill-rule="evenodd" clip-rule="evenodd" d="M9.93056 12.2222C14.1494 12.2222 17.5694 8.80218 17.5694 4.58333C17.5694 2.86366 17.0012 1.2767 16.0422 0H25.9716C25.0127 1.2767 24.4444 2.86365 24.4444 4.58332C24.4444 8.80216 27.8645 12.2222 32.0833 12.2222C36.3022 12.2222 39.7222 8.80216 39.7222 4.58332C39.7222 2.86365 39.154 1.2767 38.195 0H48.1244C47.1654 1.2767 46.5972 2.86365 46.5972 4.58332C46.5972 8.80216 50.0172 12.2222 54.2361 12.2222C58.4549 12.2222 61.875 8.80216 61.875 4.58332C61.875 2.86365 61.3067 1.2767 60.3478 0H70.2772C69.3182 1.2767 68.75 2.86365 68.75 4.58332C68.75 8.80216 72.17 12.2222 76.3889 12.2222C80.6077 12.2222 84.0278 8.80216 84.0278 4.58332C84.0278 2.86365 83.4595 1.2767 82.5005 0H92.43C91.471 1.2767 90.9028 2.86365 90.9028 4.58332C90.9028 8.80216 94.3228 12.2222 98.5416 12.2222C102.76 12.2222 106.181 8.80216 106.181 4.58332C106.181 2.86365 105.612 1.2767 104.653 0H114.583C113.624 1.2767 113.056 2.86365 113.056 4.58332C113.056 8.80216 116.476 12.2222 120.694 12.2222C124.913 12.2222 128.333 8.80216 128.333 4.58332C128.333 2.86365 127.765 1.2767 126.806 0H136.736C135.777 1.2767 135.208 2.86365 135.208 4.58332C135.208 8.80216 138.628 12.2222 142.847 12.2222C147.066 12.2222 150.486 8.80216 150.486 4.58332C150.486 2.86365 149.918 1.2767 148.959 0H158.888C157.929 1.2767 157.361 2.86365 157.361 4.58332C157.361 8.80216 160.781 12.2222 165 12.2222C169.219 12.2222 172.639 8.80216 172.639 4.58332C172.639 2.86365 172.071 1.2767 171.112 0H181.041C180.082 1.2767 179.514 2.86365 179.514 4.58332C179.514 8.80216 182.934 12.2222 187.153 12.2222C191.372 12.2222 194.792 8.80216 194.792 4.58332C194.792 2.86365 194.223 1.2767 193.264 0H203.194C202.235 1.2767 201.667 2.86365 201.667 4.58332C201.667 8.80216 205.087 12.2222 209.306 12.2222C213.524 12.2222 216.944 8.80216 216.944 4.58332C216.944 2.86365 216.376 1.2767 215.417 0H220V220H0V0H3.81889C2.85992 1.2767 2.29167 2.86366 2.29167 4.58333C2.29167 8.80218 5.71171 12.2222 9.93056 12.2222Z" fill="black"/>
</svg>
