<svg width="153" height="64" viewBox="0 0 153 64" fill="none" xmlns="http://www.w3.org/2000/svg">
<g clip-path="url(#clip0)">
<path d="M39.9441 26.2303C39.8725 26.4278 39.778 26.5978 39.6977 26.7854C39.706 26.785 39.7144 26.785 39.7227 26.7854C39.689 26.8282 39.676 26.8534 39.6282 26.9083C39.3873 27.4765 38.6698 28.2861 38.3398 28.6503C38.0867 28.9414 37.8483 29.2452 37.6256 29.5608C35.9823 31.7251 35.2518 34.1319 35.2604 36.8282C35.2604 37.0246 35.2756 37.3954 35.2778 37.617C35.3668 38.7216 35.319 39.6683 34.8827 40.7225C34.3679 41.9801 33.4733 43.0412 32.3265 43.7546C30.9393 44.8516 29.1483 45.4757 27.1555 45.445C26.9275 45.445 26.7039 45.4044 26.4836 45.3858C26.4836 45.3946 26.4836 45.4044 26.489 45.4132C26.4282 45.3924 26.3924 45.3847 26.3164 45.354C25.6467 45.2958 24.5515 44.8592 24.037 44.6464C23.6064 44.478 23.1677 44.3315 22.7225 44.2076C19.6878 43.259 16.4445 43.2292 13.3932 44.1221C13.1664 44.1868 12.7854 44.3228 12.5368 44.3996C12.1895 44.5203 11.8486 44.6355 11.5067 44.7287C10.6509 45.1403 9.71485 45.3532 8.76708 45.3518C5.31864 45.3551 2.40967 42.4327 2.38796 38.9421C2.38468 38.4532 2.43676 37.9656 2.54318 37.4886C2.57249 37.3526 2.60722 37.2188 2.64521 37.086L2.74507 36.701C3.1867 34.9787 3.28061 33.1842 3.02121 31.4245C2.76181 29.6648 2.1544 27.9759 1.23523 26.4585C1.11257 26.2753 0.997517 26.0855 0.892229 25.8914C0.361828 24.915 0.0593379 23.829 0.00788355 22.7164C-0.0435708 21.6038 0.157373 20.494 0.595353 19.4719C1.03333 18.4498 1.69675 17.5425 2.5349 16.8192C3.37304 16.096 4.36372 15.576 5.4312 15.299C6.49868 15.022 7.6147 14.9953 8.69393 15.221C9.77317 15.4467 10.7871 15.9188 11.6581 16.6012C12.5291 17.2837 13.2342 18.1583 13.7195 19.1584C14.2048 20.1584 14.4574 21.2573 14.458 22.3711C14.458 22.5785 14.4493 22.7847 14.432 22.9887H14.458L14.42 23.1314C14.3414 23.91 14.1383 24.6705 13.8187 25.3835L13.5072 26.5463C13.3257 27.2245 13.1983 27.9163 13.1262 28.6152C13.0789 29.0928 13.1299 29.5752 13.276 30.032C13.422 30.4888 13.6599 30.9102 13.9748 31.2696C14.2897 31.629 14.6747 31.9187 15.1056 32.1206C15.5366 32.3224 16.0042 32.432 16.4791 32.4425C16.4911 32.4425 17.0218 32.7157 17.0587 31.5123C17.0685 31.2578 17.2758 28.206 16.7331 26.9269C16.694 26.8337 16.6137 26.6603 16.5681 26.555C16.3076 26.0482 16.1437 25.5886 16.1426 24.9995C16.1391 24.5625 16.2218 24.1292 16.3858 23.7249C16.5498 23.3205 16.7918 22.9533 17.0978 22.6445C17.4037 22.3357 17.7675 22.0915 18.1678 21.9263C18.5681 21.7611 18.997 21.6782 19.4293 21.6822C20.282 21.6899 21.0989 22.0295 21.7101 22.6304C22.3213 23.2313 22.6796 24.0473 22.7106 24.9085C22.7125 25.1522 22.6878 25.3953 22.6368 25.6336C22.6249 25.7038 22.6031 25.7619 22.5858 25.8321C22.5728 25.8826 22.5478 25.9703 22.5359 26.0164C22.2243 27.2461 22.8278 29.224 23.1697 30.1849C23.1978 30.265 23.2421 30.3383 23.2997 30.4001C23.3573 30.4619 23.427 30.5109 23.5044 30.5441C23.5818 30.5772 23.6652 30.5937 23.7492 30.5925C23.8332 30.5913 23.9161 30.5724 23.9925 30.5371L24.0099 30.5283C23.8829 30.5788 23.6376 30.6621 24.1749 30.4548L24.1586 30.4614L24.1749 30.4548L24.2834 30.4142L24.1749 30.4548L24.2986 30.4076C24.9316 30.1717 25.4774 29.7447 25.8622 29.1847C26.2471 28.6247 26.4522 27.9587 26.4499 27.2768C26.4407 26.5089 26.36 25.7435 26.209 24.9907V24.9666C26.1829 24.8415 26.1221 24.5936 26.0809 24.3194C26.0809 24.3194 26.0809 24.3468 26.0863 24.3797C26.0961 24.4697 26.1026 24.5322 26.0939 24.4576C26.1026 24.5432 26.1059 24.5849 26.0733 24.2722C26.0559 24.1044 26.057 24.1142 26.0646 24.1834C25.9973 23.3859 26.0483 21.7941 26.5607 20.6522C28.1226 17.1748 32.1311 15.3088 35.7977 16.7842C39.5794 18.3035 41.3487 22.3931 39.9441 26.2303ZM18.0009 27.3065L18.0345 27.2944L18.0009 27.3065ZM18.0345 27.2944L18.1311 27.256L18.0345 27.2944ZM17.926 27.3361L18.0009 27.3076L17.926 27.3361ZM18.1659 27.2439L18.1333 27.256L18.1659 27.2439ZM18.1659 27.2439L18.1832 27.2373L18.1659 27.2439ZM18.3211 27.1836L18.3352 27.1781L18.3211 27.1836ZM18.332 27.1781L18.3602 27.1671L18.332 27.1781ZM18.3178 27.1836L18.3005 27.1902L18.3178 27.1836ZM17.9206 27.3372L17.8989 27.3459L17.9206 27.3372ZM139.239 33.2269C139.223 33.1874 139.207 33.1479 139.19 33.1095C139.19 33.1095 139.88 35.095 139.239 33.2269ZM144.898 23.7369C144.41 23.6568 143.693 23.2016 142.945 23.1325C142.668 23.1007 142.394 23.0486 142.125 22.9767C143.185 22.6289 144.332 22.2439 145.576 21.8523C145.601 21.8489 145.625 21.843 145.649 21.8347L145.693 21.8106C147.686 21.318 150.889 20.0488 152.017 18.3803C154.005 15.4382 152.758 12.3623 150.323 10.0104C147.87 7.6398 144.58 7.31619 142.884 11.1074C142.868 11.0998 142.854 11.0914 142.839 11.0821C142.831 11.0821 142.832 11.0909 142.831 11.0942C142.722 11.3202 142.588 11.5604 142.489 11.7864C142.383 12.006 142.291 12.2316 142.212 12.4621C141.691 13.3397 141.869 13.4286 141.494 14.0988C137.119 21.9389 135.705 16.5923 138.435 13.4834C138.681 13.2026 138.881 12.9755 139.039 12.7934C140.43 10.9955 142.389 9.08672 142.152 6.7699C141.837 3.69835 139.721 1.36179 136.767 0.756254C136.234 0.648136 135.711 0.492488 135.205 0.291135C133.577 -0.367053 131.324 0.218734 129.353 0.741993C126.07 1.613 124.075 4.27646 126.383 7.72208C126.361 7.73524 126.342 7.75828 126.344 7.76157C126.476 7.98096 126.611 8.21462 126.749 8.41976C126.879 8.62525 127.021 8.82303 127.173 9.01213V9.01871C127.371 9.4069 127.501 9.82716 127.556 10.2605C127.651 11.0054 127.826 11.7375 128.079 12.4435C128.249 12.913 128.206 13.7664 128.514 14.4641C128.699 14.8832 128.814 15.4097 129.006 16.0876C128.069 16.0098 126.612 14.6693 126.052 12.7967L125.786 11.9103C124.998 9.77233 124.415 7.08363 122.339 6.0799C118.547 4.24026 114.821 7.15494 112.973 11.3048C111.092 15.5293 114.917 20.164 119.755 21.1623C120.239 21.2621 120.936 21.7459 121.686 21.8457C122.159 21.9093 122.69 22.1002 123.412 22.2998L123.702 22.3799C122.327 22.8758 120.796 23.4769 119.074 24.0956C119.049 24.0993 119.024 24.1059 119.001 24.1153L118.959 24.1417C116.987 24.7154 113.836 26.1162 112.772 27.8264C110.902 30.8453 112.27 33.8686 114.796 36.1196C117.341 38.3892 120.642 38.579 122.186 34.7209L122.232 34.744C122.24 34.744 122.239 34.7352 122.24 34.7319C122.342 34.5016 122.463 34.2558 122.555 34.0266C122.651 33.8027 122.734 33.5734 122.804 33.3398C123.289 32.4436 123.108 32.3602 123.455 31.6757C127.516 23.6678 129.141 28.9486 126.538 32.1661L125.961 32.8802C124.643 34.7341 122.761 36.7196 123.09 39.0233C123.523 42.0137 125.911 43.6416 128.841 44.0573C129.541 44.1602 130.226 44.3442 130.883 44.6058C132.428 45.2114 134.284 45.0995 136.125 44.5301C139.37 43.5264 138.11 36.3192 137.97 36.1799V36.1723C137.755 35.7927 137.608 35.3779 137.536 34.9469C137.412 34.2067 137.207 33.4827 136.926 32.7881C136.738 32.3251 136.747 31.4717 136.411 30.7872C136.209 30.3747 136.073 29.8536 135.856 29.1845C136.796 29.224 138.303 30.5009 138.937 32.3493C139.061 32.7069 139.154 32.9943 139.238 33.2269C140.106 35.3309 140.8 37.9888 142.914 38.9114C146.775 40.5964 150.383 37.5325 152.064 33.3168C153.777 29.0145 149.771 24.5388 144.898 23.7369ZM122.239 34.7473C122.239 34.7473 122.263 34.7593 122.239 34.7473V34.7473ZM118.999 24.1208C119.015 24.111 118.998 24.1219 118.999 24.1208V24.1208ZM125.967 32.8835L126.038 32.7826C126.038 32.7826 124.723 34.4182 125.967 32.8835ZM126.336 7.7495C126.336 7.7495 126.312 7.76266 126.336 7.7495V7.7495ZM125.788 11.918L125.833 12.0365C125.833 12.0365 125.221 10.0202 125.788 11.9136V11.918ZM145.652 21.8369C145.634 21.8413 145.652 21.8292 145.652 21.8292V21.8369ZM139.036 12.7989L138.961 12.8965C138.961 12.8965 140.339 11.3114 139.036 12.7945V12.7989ZM64.8809 62.3363C61.8037 64.7223 57.6704 64.5303 55.1207 61.8185C53.6738 60.2828 53.3753 57.8804 53.5435 55.8356C53.5533 55.795 53.5435 55.817 53.5435 55.8159C53.5435 55.8148 53.5435 55.772 53.5435 55.7566V55.7435C53.5522 55.5958 53.5257 55.4481 53.4662 55.3129C53.4068 55.1778 53.3161 55.059 53.2017 54.9665C53.0874 54.8741 52.9528 54.8108 52.8093 54.7818C52.6657 54.7528 52.5174 54.7591 52.3767 54.8001C50.6498 55.3025 48.7448 55.8444 47.3728 56.1581C47.1633 56.2064 46.3569 56.4049 46.2385 56.4357C46.0703 56.4872 45.977 56.519 45.8369 56.5552L45.787 56.5673C45.6366 56.6003 45.5006 56.6812 45.399 56.7981C45.2974 56.915 45.2356 57.0617 45.2226 57.2167V57.2441C45.1198 58.3766 44.7468 59.467 44.1356 60.4218C43.5244 61.3767 42.6932 62.1675 41.7134 62.7266C40.7335 63.2856 39.6341 63.5962 38.5094 63.6318C37.3847 63.6673 36.2682 63.4267 35.2557 62.9306C34.2431 62.4345 33.3647 61.6977 32.6957 60.7833C32.0267 59.8689 31.5871 58.8042 31.4144 57.6804C31.2418 56.5566 31.3414 55.4073 31.7046 54.331C32.0678 53.2547 32.6838 52.2834 33.4999 51.5004L33.5313 51.4674C35.0149 49.8767 36.121 47.9657 36.7659 45.8791C37.4107 43.7925 37.5774 41.585 37.2533 39.4237L37.0829 38.2927C37.0098 37.8394 36.9735 37.3808 36.9743 36.9215C36.9727 35.8578 37.1728 34.8036 37.5637 33.8159C39.0508 29.6474 42.8932 27.3514 47.3153 28.6305C49.8976 29.3765 52.1998 31.373 53.7813 33.8269C53.7813 33.8269 52.4983 31.8392 54.172 34.4281C56.1833 37.5369 61.1318 44.5883 63.6804 48.8753C63.8975 49.2417 64.7659 50.6458 64.8951 50.8498C65.0948 51.1372 65.2098 51.2952 65.364 51.5377C65.5181 51.7801 65.6592 52.0324 65.8057 52.2825C65.8057 52.2825 65.8155 52.2891 65.8133 52.299L65.7819 52.333C67.8398 55.6294 67.982 59.9317 64.8809 62.3363ZM48.0132 50.7215C49.2637 50.8312 50.4012 50.5142 51.262 49.5806C51.5667 49.2519 51.7362 48.8184 51.7362 48.3679C51.7362 47.9175 51.5667 47.4839 51.262 47.1552C50.8629 46.7252 50.4105 46.3491 49.916 46.0363C49.534 45.7922 49.0736 45.7063 48.6305 45.7964C48.1874 45.8865 47.7957 46.1457 47.5367 46.5201C47.1634 47.0578 46.8407 47.6296 46.5729 48.2281C46.4576 48.4856 46.4049 48.7673 46.4194 49.0496C46.4339 49.3318 46.515 49.6065 46.656 49.8506C46.797 50.0947 46.9938 50.3012 47.2299 50.4527C47.4661 50.6042 47.7347 50.6964 48.0132 50.7215ZM117.718 54.7935C114.641 57.1794 110.507 56.9874 107.957 54.2757C106.51 52.7399 106.212 50.3376 106.38 48.2928C106.39 48.2522 106.38 48.2741 106.38 48.273C106.382 48.2533 106.382 48.2335 106.38 48.2138V48.2006C106.389 48.0529 106.363 47.9053 106.303 47.7701C106.244 47.6349 106.153 47.5161 106.039 47.4237C105.924 47.3313 105.79 47.2679 105.646 47.239C105.503 47.21 105.354 47.2163 105.214 47.2572C103.487 47.7586 101.581 48.3016 100.209 48.6153C100 48.6636 99.1938 48.8621 99.0755 48.8928C98.9072 48.9444 98.8128 48.9751 98.6728 49.0124L98.6239 49.0245C98.4734 49.0573 98.3373 49.1381 98.2357 49.2551C98.1341 49.372 98.0723 49.5188 98.0595 49.6739V49.7013C97.9567 50.8338 97.5837 51.9241 96.9725 52.879C96.3613 53.8338 95.5302 54.6247 94.5503 55.1837C93.5704 55.7428 92.471 56.0534 91.3463 56.0889C90.2216 56.1245 89.1051 55.8839 88.0926 55.3878C87.0801 54.8917 86.2016 54.1548 85.5326 53.2404C84.8636 52.326 84.424 51.2613 84.2514 50.1376C84.0787 49.0138 84.1783 47.8645 84.5415 46.7882C84.9047 45.7118 85.5207 44.7405 86.3368 43.9575L86.3672 43.9246C87.8513 42.3342 88.9579 40.4233 89.6031 38.3366C90.2483 36.25 90.4153 34.0424 90.0913 31.8809L89.922 30.7499C89.8489 30.2966 89.8126 29.838 89.8134 29.3787C89.8123 28.315 90.0124 27.2609 90.4028 26.2731C91.891 22.1046 95.7334 19.8086 100.155 21.0866C102.738 21.8336 105.04 23.829 106.621 26.2841C106.621 26.2841 105.337 24.2952 107.012 26.8841C109.024 29.9941 113.972 37.0454 116.52 41.3324C116.737 41.6988 117.605 43.103 117.735 43.307C117.934 43.5944 118.05 43.7524 118.204 43.9948C118.358 44.2372 118.499 44.4896 118.646 44.7397C118.646 44.7397 118.655 44.7462 118.652 44.7561L118.622 44.7901C120.681 48.0876 120.819 52.3889 117.718 54.7946V54.7935ZM100.85 43.1798C102.101 43.2895 103.238 42.9713 104.098 42.0389C104.402 41.7102 104.572 41.2766 104.572 40.8262C104.572 40.3758 104.402 39.9422 104.098 39.6135C103.699 39.1834 103.246 38.8074 102.752 38.4946C102.37 38.2504 101.909 38.1645 101.466 38.2546C101.023 38.3447 100.631 38.6039 100.371 38.9783C99.9987 39.5162 99.6764 40.088 99.4087 40.6863C99.2934 40.9439 99.2408 41.2257 99.2553 41.5081C99.2698 41.7904 99.3511 42.0652 99.4922 42.3093C99.6333 42.5534 99.8303 42.7599 100.067 42.9113C100.303 43.0627 100.571 43.1548 100.85 43.1798ZM88.4045 35.7609C87.673 40.9463 85.0136 43.5165 82.1459 44.6464C81.8578 44.7572 81.597 44.9298 81.3815 45.1524C81.166 45.3751 81.0009 45.6424 80.8977 45.9359C80.7945 46.2293 80.7555 46.542 80.7837 46.8521C80.8118 47.1623 80.9062 47.4626 81.0605 47.7322C81.9657 49.2812 82.134 51.2623 81.4892 53.2029C80.394 56.4938 77.1952 58.2556 73.8 57.1674C71.8733 56.5498 70.2528 55.2191 69.1478 53.51C69.1413 53.51 69.1478 53.51 69.1478 53.51L69.1217 53.4727C65.5398 48.442 62.2162 43.4354 58.6527 38.3739C58.4237 38.0448 57.9027 37.2769 57.6411 37.0125C57.2275 36.5902 56.8096 35.717 56.5318 35.3583C53.753 31.7734 53.2201 27.2132 56.675 24.3336C58.6418 22.6948 65.3129 17.9591 66.0174 17.4073C69.4691 14.7033 72.8046 12.2219 79.2597 16.4804C85.3642 20.5129 89.4715 28.1917 88.4045 35.7609ZM71.5879 28.7808C71.038 28.8107 70.5205 29.0532 70.1429 29.4582C69.7652 29.8632 69.5562 30.3996 69.5592 30.9561C69.5592 31.1645 69.5592 31.3697 69.5527 31.5704C69.5527 31.5704 69.5907 29.8602 69.5451 32.1047C69.5438 33.319 69.6331 34.5316 69.8121 35.7324C70.0813 37.606 72.4356 38.2444 73.6024 36.7635L73.6415 36.7142C77.3591 32.0103 75.5964 28.5669 71.5879 28.7808Z" fill="white"/>
<path d="M128.335 52.0824H126.395L125.952 53.9012H124.559L126.671 45.8757L128.699 45.8812L130.482 53.8277L128.721 53.8431C128.669 53.582 128.432 52.5157 128.335 52.0824ZM127.96 50.3327L127.459 47.7L126.826 50.3327H127.96Z" fill="white"/>
<path d="M136.2 51.7314C136.347 53.0302 136.425 55.0442 134.706 55.2417C132.325 55.5181 131.572 53.39 131.35 51.4319C131.203 50.1429 131.323 48.7234 132.284 47.7614C132.652 47.3851 133.205 47.0473 133.728 46.9869C134.301 46.92 135.139 47.0363 135.565 47.4619L134.999 48.5589C134.718 48.47 134.201 48.4997 133.905 48.5435C133.738 48.5633 133.438 48.7498 133.311 48.865C132.58 49.4771 132.477 50.5104 132.578 51.4001C132.712 52.5782 133.092 53.9911 134.545 53.8222C134.95 53.7761 134.836 52.3314 134.811 52.021L134.04 52.1L133.851 50.8779C134.574 50.7232 135.289 50.5894 136.005 50.4556C136.083 50.8845 136.151 51.3024 136.2 51.7314Z" fill="white"/>
<path d="M140.876 52.858L139.479 53.3571L136.976 45.9448L138.387 45.4413L140.876 52.858Z" fill="white"/>
<path d="M144.282 48.3669L146.201 47.5069L146.762 48.7849L143.414 50.2834L140.206 42.9676L141.633 42.3281L144.282 48.3669Z" fill="white"/>
<path d="M147.199 42.9051L147.732 44.0734L149.864 43.0795L150.444 44.3487L148.366 45.3174L149.27 47.4422L151.619 46.3452L152.302 47.8426L149.953 48.9396L148.527 49.6054L147.843 48.1081L146.885 46.0085L146.305 44.7392L145.774 43.571L145.195 42.3018L146.622 41.6359L148.971 40.5389L149.549 41.8081L147.199 42.9051Z" fill="white"/>
<path d="M136.016 23.0519C136.081 23.0663 136.141 23.0947 136.194 23.135C136.246 23.1753 136.289 23.2266 136.32 23.2854C136.351 23.3442 136.369 23.4091 136.373 23.4756C136.377 23.5421 136.366 23.6087 136.342 23.6706C135.752 25.1702 134.516 26.2924 132.955 26.5382C130.483 26.9254 128.128 24.9662 127.697 22.1623C127.675 22.0109 127.657 21.8606 127.646 21.7114C127.641 21.639 127.652 21.5662 127.679 21.4989C127.706 21.4317 127.749 21.3719 127.803 21.3244C127.858 21.277 127.923 21.2432 127.993 21.2258C128.062 21.2084 128.135 21.2079 128.205 21.2244L132.479 22.2237C132.596 22.2512 132.697 22.3242 132.762 22.4268C132.826 22.5295 132.847 22.6536 132.822 22.7722L132.777 22.9774C132.761 23.0526 132.759 23.1305 132.773 23.2064C132.786 23.2823 132.814 23.3547 132.855 23.4197C132.896 23.4846 132.95 23.5406 133.012 23.5847C133.075 23.6287 133.146 23.6598 133.22 23.6761L133.887 23.8242C133.961 23.8409 134.038 23.8425 134.113 23.8289C134.188 23.8154 134.26 23.7871 134.324 23.7455C134.388 23.7039 134.444 23.6499 134.487 23.5866C134.531 23.5233 134.562 23.452 134.578 23.3767L134.616 23.2033C134.629 23.1437 134.653 23.0872 134.688 23.0372C134.723 22.9872 134.767 22.9446 134.818 22.9119C134.869 22.8793 134.926 22.8572 134.986 22.847C135.045 22.8367 135.106 22.8385 135.165 22.8523L136.016 23.0519ZM136.253 19.3496C136.091 19.3061 135.943 19.2212 135.822 19.103C135.702 18.9849 135.614 18.8375 135.567 18.675C135.501 18.4544 135.511 18.2177 135.595 18.0036C135.601 17.9881 135.603 17.9712 135.601 17.9546C135.598 17.938 135.592 17.9223 135.582 17.9089C135.572 17.8956 135.559 17.8851 135.544 17.8784C135.528 17.8718 135.512 17.8692 135.495 17.8709C135.186 17.9032 134.892 18.0254 134.65 18.2228C134.408 18.4202 134.228 18.6843 134.131 18.9832C134.034 19.282 134.026 19.6028 134.106 19.9066C134.186 20.2104 134.351 20.4842 134.582 20.6948C134.813 20.9055 135.1 21.044 135.407 21.0935C135.714 21.143 136.029 21.1014 136.313 20.9738C136.597 20.8462 136.839 20.638 137.009 20.3745C137.178 20.1109 137.269 19.8033 137.269 19.489C137.269 19.4233 137.265 19.3578 137.257 19.2926C137.256 19.273 137.249 19.2541 137.238 19.2378C137.227 19.2216 137.212 19.2087 137.194 19.2004C137.177 19.1921 137.157 19.1887 137.138 19.1907C137.118 19.1926 137.1 19.1998 137.084 19.2114C136.964 19.294 136.827 19.3491 136.684 19.3729C136.54 19.3968 136.393 19.3889 136.253 19.3496ZM131.762 18.1901C130.722 17.8554 129.637 17.6791 128.545 17.6669C128.094 17.6614 128.094 18.3711 128.545 18.3766C129.574 18.3887 130.596 18.5566 131.576 18.8746C132.007 19.014 132.192 18.3294 131.762 18.1901Z" fill="#231F20"/>
</g>
<defs>
<clipPath id="clip0">
<rect width="153" height="64" fill="white"/>
</clipPath>
</defs>
</svg>
