<svg xmlns="http://www.w3.org/2000/svg" xmlns:xlink="http://www.w3.org/1999/xlink" viewBox="0 0 1409.57 583.42"><defs><style>.a{fill:url(#a);}.b{fill:#fff;}.c{fill:#231f20;}</style><linearGradient id="a" x1="606.21" y1="340.84" x2="1006.65" y2="-59.6" gradientUnits="userSpaceOnUse"><stop offset="0" stop-color="#75cddd"/><stop offset="0.24" stop-color="#72c9dc"/><stop offset="0.5" stop-color="#68bcd8"/><stop offset="0.77" stop-color="#59a6d3"/><stop offset="1" stop-color="#478ecc"/></linearGradient></defs><title>sharazhAgileLogoРесурс 5</title><path class="a" d="M368,239.12c-.66,1.8-1.53,3.35-2.27,5.06a2.23,2.23,0,0,1,.23,0c-.31.39-.43.62-.87,1.12-2.22,5.18-8.83,12.56-11.87,15.88a104.47,104.47,0,0,0-6.58,8.3c-15.14,19.73-21.87,41.67-21.79,66.25,0,1.79.14,5.17.16,7.19.82,10.07.38,18.7-3.64,28.31a58.89,58.89,0,0,1-23.55,27.64c-12.78,10-29.28,15.69-47.64,15.41-2.1,0-4.16-.37-6.19-.54,0,.08,0,.17.05.25-.56-.19-.89-.26-1.59-.54-6.17-.53-16.26-4.51-21-6.45A126.85,126.85,0,0,0,209.34,403a149.84,149.84,0,0,0-85.95-.78c-2.09.59-5.6,1.83-7.89,2.53-3.2,1.1-6.34,2.15-9.49,3a58.53,58.53,0,0,1-25.24,5.68C49,413.46,22.2,386.82,22,355a58.43,58.43,0,0,1,1.43-13.25c.27-1.24.59-2.46.94-3.67l.92-3.51a120.79,120.79,0,0,0-13.91-93.37h0c-1.13-1.67-2.19-3.4-3.16-5.17h0A66.6,66.6,0,1,1,133.2,203.94c0,1.89-.08,3.77-.24,5.63l.24,0-.35,1.3a66,66,0,0,1-5.54,20.53L124.44,242a119.9,119.9,0,0,0-3.51,18.86,31.74,31.74,0,0,0,30.89,34.89c.11,0,5,2.49,5.34-8.48.09-2.32,2-30.14-3-41.8-.36-.85-1.1-2.43-1.52-3.39-2.4-4.62-3.91-8.81-3.92-14.18A30,30,0,0,1,179,197.66a30.52,30.52,0,0,1,30.23,29.41,30.14,30.14,0,0,1-.68,6.61c-.11.64-.31,1.17-.47,1.81-.12.46-.35,1.26-.46,1.68-2.87,11.21,2.69,29.24,5.84,38a5.58,5.58,0,0,0,7.58,3.21l.16-.08c-1.17.46-3.43,1.22,1.52-.67l-.15.06.15-.06,1-.37-1,.37,1.14-.43a30.31,30.31,0,0,0,19.82-28.54,111.71,111.71,0,0,0-2.22-20.84l0-.22c-.24-1.14-.8-3.4-1.18-5.9,0,0,0,.25.05.55.09.82.15,1.39.07.71.08.78.11,1.16-.19-1.69-.16-1.53-.15-1.44-.08-.81-.62-7.27-.15-21.78,4.57-32.19,14.39-31.7,51.32-48.71,85.1-35.26C364.64,166.86,380.94,204.14,368,239.12Zm-202.16,9.81.31-.11Zm.31-.11.89-.35Zm-1,.38.69-.26Zm.71-.27h0Zm1.5-.57-.3.11Zm0,0,.16-.06Zm1.43-.55.13-.05Zm-3.64,1.39h0Zm4-1.54Zm-.26.1.26-.1Zm-.13.05-.16.06Zm-3.86,1.48Zm.2-.08-.2.08ZM1282.79,302.9c-.15-.36-.29-.72-.45-1.07C1282.34,301.83,1288.7,319.93,1282.79,302.9Zm52.14-86.51c-4.5-.73-11.1-4.88-18-5.51a52.89,52.89,0,0,1-7.55-1.42c9.77-3.17,20.33-6.68,31.79-10.25a3.51,3.51,0,0,0,.68-.16l.4-.22c18.36-4.49,47.87-16.06,58.26-31.27,18.32-26.82,6.83-54.86-15.6-76.3-22.6-21.61-52.91-24.56-68.54,10a4.29,4.29,0,0,1-.41-.23c-.08,0-.07.08-.08.11-1,2.06-2.23,4.25-3.15,6.31a57.31,57.31,0,0,0-2.55,6.16c-4.8,8-3.16,8.81-6.61,14.92-40.31,71.47-53.34,22.73-28.19-5.61,2.27-2.56,4.11-4.63,5.57-6.29,12.81-16.39,30.86-33.79,28.68-54.91-2.9-28-22.4-49.3-49.61-54.82a84.83,84.83,0,0,1-14.39-4.24c-15-6-35.76-.66-53.92,4.11-30.24,7.94-48.62,32.22-27.36,63.63-.2.12-.38.33-.36.36,1.22,2,2.46,4.13,3.73,6a58.18,58.18,0,0,0,3.91,5.4l0,.06a34.17,34.17,0,0,1,3.53,11.32,93.16,93.16,0,0,0,4.82,19.9c1.56,4.28,1.17,12.06,4,18.42,1.71,3.82,2.77,8.62,4.54,14.8-8.64-.71-22.06-12.93-27.22-30l-2.45-8.08c-7.26-19.49-12.63-44-31.76-53.15-34.93-16.77-69.26,9.8-86.28,47.63-17.33,38.51,17.91,80.76,62.48,89.86,4.46.91,10.88,5.32,17.79,6.23,4.36.58,9.25,2.32,15.9,4.14l2.67.73c-12.67,4.52-26.77,10-42.64,15.64a3,3,0,0,0-.67.18l-.39.24c-18.16,5.23-47.19,18-57,33.59-17.22,27.52-4.62,55.08,18.65,75.6,23.45,20.69,53.86,22.42,68.08-12.75l.43.21c.07,0,.06-.08.07-.11.94-2.1,2.06-4.34,2.9-6.43a58.08,58.08,0,0,0,2.3-6.26c4.47-8.17,2.8-8.93,6-15.17,37.41-73,52.38-24.86,28.4,4.47l-5.32,6.51c-12.14,16.9-29.48,35-26.45,56C1138,383,1160,397.84,1187,401.63a84.57,84.57,0,0,1,18.81,5c14.23,5.52,31.33,4.5,48.29-.69,29.9-9.15,18.29-74.85,17-76.12l0-.07a34,34,0,0,1-4-11.17,92.61,92.61,0,0,0-5.62-19.68c-1.73-4.22-1.65-12-4.74-18.24-1.86-3.76-3.12-8.51-5.12-14.61,8.66.36,22.55,12,28.39,28.85,1.14,3.26,2,5.88,2.77,8,8,19.18,14.39,43.41,33.87,51.82,35.57,15.36,68.81-12.57,84.3-51C1416.73,264.5,1379.82,223.7,1334.93,216.39ZM1126.17,316.76h0S1126.39,316.87,1126.17,316.76Zm-29.85-96.87,0,0C1096.47,219.8,1096.31,219.9,1096.32,219.89Zm64.2,79.88.65-.92S1149.06,313.76,1160.52,299.77Zm3.4-229.12h0S1163.7,70.77,1163.92,70.65Zm-5.05,38,.41,1.08S1153.65,91.35,1158.87,108.61Zm183,90.42,0,0C1341.71,199.11,1341.87,199,1341.87,199Zm-60.95-82.39-.69.89S1292.93,103.12,1280.92,116.64ZM597.74,568.26c-28.35,21.75-66.43,20-89.92-4.72-13.33-14-16.08-35.9-14.53-54.54.09-.37,0-.17,0-.18s0-.4,0-.54v-.12a8.43,8.43,0,0,0-10.75-8.6c-15.91,4.58-33.46,9.52-46.1,12.38-1.93.44-9.36,2.25-10.45,2.53-1.55.47-2.41.76-3.7,1.09l-.46.11a6.63,6.63,0,0,0-5.2,5.92v.25h0a64.12,64.12,0,1,1-108-52.36h0l.29-.3a131.37,131.37,0,0,0,34.29-109.79l-1.57-10.31a76.77,76.77,0,0,1-1-12.5,75.89,75.89,0,0,1,5.43-28.31c13.7-38,49.1-58.93,89.84-47.27,23.79,6.8,45,25,59.57,47.37,0,0-11.82-18.12,3.6,5.48,18.53,28.34,64.12,92.62,87.6,131.7,2,3.34,10,16.14,11.19,18,1.84,2.62,2.9,4.06,4.32,6.27s2.72,4.51,4.07,6.79c0,0,.09.06.07.15l-.29.31C625,507.12,626.31,546.34,597.74,568.26ZM442.34,462.38c11.52,1,22-1.89,29.93-10.4a16.17,16.17,0,0,0,0-22.11,62.35,62.35,0,0,0-12.4-10.2,16.19,16.19,0,0,0-21.92,4.41,96,96,0,0,0-8.88,15.57A16.14,16.14,0,0,0,442.34,462.38ZM309.64,537Zm774.88-37.5c-28.35,21.75-66.43,20-89.93-4.72-13.33-14-16.07-35.9-14.52-54.54.09-.37,0-.17,0-.18a5,5,0,0,0,0-.54v-.12a8.43,8.43,0,0,0-10.75-8.6c-15.91,4.57-33.47,9.52-46.11,12.38-1.92.44-9.35,2.25-10.44,2.53-1.55.47-2.42.75-3.71,1.09l-.45.11a6.62,6.62,0,0,0-5.2,5.92v.25h0a64.12,64.12,0,1,1-108-52.36h0l.28-.3A131.35,131.35,0,0,0,830,290.63l-1.56-10.31a76.86,76.86,0,0,1-1-12.5,76.09,76.09,0,0,1,5.43-28.31c13.71-38,49.11-58.93,89.85-47.28,23.79,6.81,45,25,59.57,47.38,0,0-11.83-18.13,3.6,5.47,18.53,28.35,64.12,92.63,87.59,131.71,2,3.34,10,16.14,11.2,18,1.83,2.62,2.9,4.06,4.32,6.27s2.72,4.51,4.07,6.79c0,0,.08.06.06.15l-.28.31C1111.82,438.37,1113.09,477.58,1084.52,499.51ZM929.12,393.63c11.52,1,22-1.9,29.92-10.4a16.17,16.17,0,0,0,0-22.11,62.35,62.35,0,0,0-12.4-10.2,16.2,16.2,0,0,0-21.93,4.41,96.29,96.29,0,0,0-8.87,15.57A16.14,16.14,0,0,0,929.12,393.63ZM814.46,326c-6.74,47.27-31.24,70.7-57.66,81a19.6,19.6,0,0,0-10,28.13c8.34,14.12,9.89,32.18,3.95,49.87-10.09,30-39.56,46.06-70.84,36.14-17.75-5.63-32.68-17.76-42.86-33.34-.06,0,0,0,0,0l-.24-.34c-33-45.86-63.62-91.5-96.45-137.64-2.11-3-6.91-10-9.32-12.41-3.81-3.85-7.66-11.81-10.22-15.08-25.6-32.68-30.51-74.25,1.32-100.5,18.12-14.94,79.58-58.11,86.07-63.14,31.8-24.65,62.53-47.27,122-8.45C786.45,187,824.29,257,814.46,326ZM659.53,262.37a19.75,19.75,0,0,0-18.69,19.83c0,1.9,0,3.77-.06,5.6,0,0,.35-15.59-.07,4.87a220.45,220.45,0,0,0,2.46,33.07c2.48,17.08,24.17,22.9,34.92,9.4l.36-.45C712.7,291.81,696.46,260.42,659.53,262.37Z"/><path class="b" d="M1182.33,474.78l-17.87,0-4.08,16.58-12.83,0L1167,418.2l18.69.05,16.42,72.44-16.22.14C1185.41,488.45,1183.23,478.73,1182.33,474.78Zm-3.45-15.95-4.62-24-5.83,24Z"/><path class="b" d="M1254.79,471.58c1.36,11.84,2.08,30.2-13.76,32-21.94,2.52-28.87-16.88-30.92-34.73-1.35-11.75-.25-24.69,8.61-33.46,3.39-3.43,8.48-6.51,13.3-7.06,5.28-.61,13,.45,16.92,4.33l-5.21,10c-2.59-.81-7.35-.54-10.08-.14-1.54.18-4.3,1.88-5.47,2.93-6.74,5.58-7.69,15-6.76,23.11,1.24,10.74,4.74,23.62,18.13,22.08,3.73-.42,2.68-13.59,2.45-16.42l-7.11.72-1.74-11.14c6.66-1.41,13.25-2.63,19.85-3.85C1253.72,463.86,1254.34,467.67,1254.79,471.58Z"/><path class="b" d="M1297.87,481.85,1285,486.4l-23.06-67.57,13-4.59Z"/><path class="b" d="M1329.25,440.91l17.68-7.84,5.17,11.65-30.84,13.66-29.56-66.69,13.15-5.83Z"/><path class="b" d="M1356.13,391.12l4.91,10.65,19.64-9.06,5.34,11.57-19.14,8.83,8.33,19.37,21.64-10,6.29,13.65-21.64,10-13.14,6.07-6.3-13.65-8.83-19.14-5.34-11.57L1343,397.19l-5.34-11.57,13.15-6.07,21.64-10,5.33,11.57Z"/><path class="c" d="M1253.1,210.14a4.2,4.2,0,0,1,3,5.64c-5.43,13.67-16.82,23.9-31.2,26.14-22.78,3.53-44.47-14.33-48.44-39.89-.21-1.38-.37-2.75-.47-4.11a4.21,4.21,0,0,1,5.15-4.44l39.37,9.11a4.21,4.21,0,0,1,3.16,5l-.41,1.87a5.34,5.34,0,0,0,4.08,6.37l6.14,1.35a5.34,5.34,0,0,0,6.37-4.08l.35-1.58a4.21,4.21,0,0,1,5.06-3.2Zm2.18-33.75a9,9,0,0,1-6.32-6.15,9.28,9.28,0,0,1,.26-6.12.89.89,0,0,0-.92-1.21,14.82,14.82,0,1,0,16.34,14.75,15.09,15.09,0,0,0-.11-1.79,1,1,0,0,0-1.59-.74A9.25,9.25,0,0,1,1255.28,176.39Zm-41.37-10.57a101.46,101.46,0,0,0-29.64-4.77c-4.16-.05-4.16,6.42,0,6.47a94.91,94.91,0,0,1,27.92,4.54C1216.16,173.33,1217.87,167.09,1213.91,165.82Z"/></svg>