<svg width="25" height="50" viewBox="0 0 25 50" fill="none" xmlns="http://www.w3.org/2000/svg">
<path d="M16.294 18.2481C16.2849 18.2264 16.2764 18.2047 16.2666 18.1836C16.2666 18.1836 16.6529 19.274 16.294 18.2481ZM19.4604 13.0364C19.1871 12.9925 18.7863 12.7424 18.3673 12.7045C18.2126 12.687 18.0593 12.6585 17.9088 12.619C18.5021 12.428 19.1434 12.2165 19.8394 12.0015C19.8534 11.9996 19.8672 11.9964 19.8807 11.9918L19.9049 11.9786C21.0199 11.7081 22.8121 11.0111 23.443 10.0948C24.5556 8.47904 23.8578 6.78982 22.4957 5.4982C21.1232 4.19635 19.2825 4.01863 18.3333 6.10064C18.3247 6.09647 18.3164 6.09185 18.3084 6.08678C18.3035 6.08678 18.3035 6.09341 18.3035 6.09341C18.2428 6.21751 18.1681 6.34944 18.1122 6.47354C18.0534 6.59415 18.0017 6.71806 17.9574 6.84464C17.6659 7.32658 17.7654 7.37538 17.5559 7.74347C15.1079 12.0491 14.3166 9.1128 15.844 7.4055C15.9818 7.25128 16.0936 7.12658 16.1822 7.02657C16.9602 6.03919 18.0563 4.99096 17.924 3.71862C17.7478 2.03181 16.5642 0.748628 14.9112 0.416086C14.6128 0.35671 14.3204 0.271232 14.0373 0.160654C13.1263 -0.200805 11.8656 0.120894 10.7627 0.408254C8.92447 0.887188 7.80826 2.34989 9.09998 4.24213C9.08723 4.24936 9.07629 4.26201 9.07751 4.26382C9.1516 4.38431 9.2269 4.51262 9.30403 4.62528C9.37685 4.73813 9.45613 4.84675 9.54148 4.95059V4.95421C9.65246 5.16739 9.72501 5.39819 9.75585 5.63616C9.80873 6.04523 9.90689 6.44727 10.0486 6.835C10.1433 7.09284 10.1196 7.56153 10.2915 7.94468C10.3953 8.17481 10.4597 8.46398 10.5672 8.83628C10.0425 8.79351 9.22751 8.05733 8.91415 7.02898L8.76536 6.54222C8.32446 5.36808 7.99835 3.89152 6.8366 3.34029C4.71532 2.33001 2.63048 3.93067 1.59687 6.20968C0.547463 8.53085 2.68757 11.0761 5.39427 11.6273C5.66513 11.6822 6.05501 11.9478 6.47465 12.0027C6.73943 12.0376 7.03639 12.1424 7.44024 12.2521L7.60239 12.296C6.83356 12.5653 5.97667 12.8925 5.01168 13.2352C4.99774 13.2373 4.98408 13.2409 4.97099 13.2461L4.9473 13.2605C3.84446 13.5756 2.08149 14.3449 1.48573 15.2841C0.439972 16.942 1.20516 18.6023 2.61833 19.8385C4.04608 21.0855 5.89286 21.1892 6.75643 19.0704L6.78255 19.083C6.7868 19.083 6.7868 19.0764 6.7868 19.0764C6.84388 18.9499 6.9119 18.815 6.96291 18.6891C7.01671 18.5661 7.06335 18.4402 7.10259 18.3119C7.37405 17.8197 7.27263 17.774 7.46697 17.398C9.73885 13.0003 10.648 15.9004 9.19168 17.6673L8.8686 18.0595C8.13134 19.0776 7.0783 20.168 7.26231 21.4331C7.50158 23.0736 8.83398 23.9676 10.4773 24.1959C10.8685 24.2524 11.2518 24.3534 11.6196 24.4971C12.4838 24.8296 13.5223 24.7682 14.5523 24.4555C16.3681 23.9043 15.663 19.9463 15.5847 19.8698V19.8656C15.4646 19.6572 15.3823 19.4294 15.3417 19.1927C15.2725 18.7862 15.158 18.3886 15.0004 18.0071C14.8954 17.7529 14.9002 17.2842 14.7126 16.9083C14.5996 16.6818 14.5231 16.3956 14.4017 16.0281C14.9276 16.0498 15.7711 16.751 16.1258 17.7661C16.195 17.9625 16.2503 18.1204 16.294 18.2481C16.7798 19.4035 17.1679 20.8632 18.3509 21.3699C20.511 22.2952 22.5297 20.6126 23.4704 18.2975C24.4281 15.9347 22.1865 13.4768 19.4604 13.0364ZM8.8686 18.0595L8.90807 18.0041C8.90807 18.0041 8.17264 18.9023 8.8686 18.0595ZM8.77143 6.54583L8.79633 6.6109C8.79633 6.6109 8.45139 5.50362 8.7684 6.54342L8.77143 6.54583ZM19.8849 11.993H19.8819C19.8721 11.9954 19.8819 11.9888 19.8819 11.9888L19.8849 11.993ZM16.1804 7.02959L16.1385 7.0832C16.1385 7.0832 16.9098 6.21269 16.1804 7.02718V7.02959Z" fill="#C4C4C4"/>
<path d="M16.294 43.5283C16.2849 43.5066 16.2764 43.4849 16.2666 43.4638C16.2666 43.4638 16.6529 44.5542 16.294 43.5283ZM19.4604 38.3166C19.1871 38.2727 18.7863 38.0226 18.3673 37.9847C18.2126 37.9672 18.0593 37.9387 17.9088 37.8991C18.5021 37.7082 19.1434 37.4967 19.8394 37.2817C19.8534 37.2798 19.8672 37.2766 19.8807 37.272L19.9049 37.2588C21.0199 36.9883 22.8121 36.2913 23.443 35.375C24.5556 33.7592 23.8578 32.07 22.4957 30.7784C21.1232 29.4765 19.2825 29.2988 18.3333 31.3808C18.3247 31.3767 18.3164 31.372 18.3084 31.367C18.3035 31.367 18.3041 31.3718 18.3035 31.3736C18.2428 31.4977 18.1681 31.6296 18.1122 31.7537C18.0534 31.8744 18.0017 31.9983 17.9574 32.1248C17.6659 32.6068 17.7654 32.6556 17.5559 33.0237C15.1079 37.3292 14.3166 34.393 15.844 32.6857C15.9818 32.5315 16.0936 32.4068 16.1822 32.3068C16.9602 31.3194 18.0563 30.2712 17.924 28.9988C17.7478 27.312 16.5642 26.0288 14.9112 25.6963C14.6128 25.6369 14.3204 25.5514 14.0373 25.4409C13.1263 25.0794 11.8656 25.4011 10.7627 25.6885C8.92447 26.1674 7.80826 27.6301 9.09998 29.5223C9.08723 29.5296 9.07629 29.5422 9.07751 29.544C9.1516 29.6645 9.2269 29.7928 9.30403 29.9055C9.37685 30.0183 9.45613 30.1269 9.54148 30.2308V30.2344C9.65246 30.4476 9.72501 30.6784 9.75585 30.9164C9.80873 31.3254 9.90689 31.7275 10.0486 32.1152C10.1433 32.373 10.1196 32.8417 10.2915 33.2249C10.3953 33.455 10.4597 33.7442 10.5672 34.1165C10.0425 34.0737 9.22751 33.3375 8.91415 32.3092L8.76536 31.8224C8.32446 30.6483 7.99835 29.1717 6.8366 28.6205C4.71532 27.6102 2.63048 29.2109 1.59687 31.4899C0.547463 33.811 2.68757 36.3563 5.39427 36.9075C5.66513 36.9624 6.05501 37.228 6.47465 37.2829C6.73943 37.3178 7.03639 37.4226 7.44024 37.5323L7.60239 37.5762C6.83356 37.8455 5.97667 38.1727 5.01168 38.5154C4.99774 38.5175 4.98408 38.5211 4.97099 38.5263L4.9473 38.5407C3.84446 38.8558 2.08149 39.6251 1.48573 40.5643C0.439972 42.2222 1.20516 43.8825 2.61833 45.1187C4.04608 46.3657 5.89286 46.4693 6.75643 44.3506L6.78255 44.3632C6.7868 44.3632 6.78619 44.3584 6.7868 44.3566C6.84388 44.2301 6.9119 44.0952 6.96291 43.9693C7.01671 43.8463 7.06335 43.7204 7.10259 43.5921C7.37405 43.0999 7.27263 43.0542 7.46697 42.6782C9.73885 38.2805 10.648 41.1806 9.19168 42.9475L8.8686 43.3397C8.13134 44.3578 7.0783 45.4482 7.26231 46.7133C7.50158 48.3538 8.83398 49.2478 10.4773 49.4761C10.8685 49.5325 11.2518 49.6336 11.6196 49.7773C12.4838 50.1098 13.5223 50.0484 14.5523 49.7357C16.3681 49.1845 15.663 45.2265 15.5847 45.15V45.1458C15.4646 44.9374 15.3823 44.7096 15.3417 44.4729C15.2725 44.0664 15.158 43.6688 15.0004 43.2873C14.8954 43.0331 14.9002 42.5644 14.7126 42.1885C14.5996 41.962 14.5231 41.6758 14.4017 41.3083C14.9276 41.33 15.7711 42.0312 16.1258 43.0463C16.195 43.2427 16.2503 43.4006 16.294 43.5283C16.7798 44.6837 17.1679 46.1434 18.3509 46.6501C20.511 47.5754 22.5297 45.8928 23.4704 43.5777C24.4281 41.2149 22.1865 38.757 19.4604 38.3166ZM6.78255 44.3632C6.78255 44.3632 6.79591 44.3699 6.78255 44.3632V44.3632ZM4.96977 38.5275C4.97888 38.5221 4.96917 38.5281 4.96977 38.5275V38.5275ZM8.8686 43.3397L8.90807 43.2843C8.90807 43.2843 8.17264 44.1825 8.8686 43.3397ZM9.07508 29.5368C9.07508 29.5368 9.06172 29.544 9.07508 29.5368V29.5368ZM8.77143 31.826L8.79633 31.8911C8.79633 31.8911 8.45139 30.7838 8.7684 31.8236L8.77143 31.826ZM19.8849 37.2732H19.8819C19.8722 37.2756 19.8819 37.269 19.8819 37.269L19.8849 37.2732ZM16.1804 32.3098L16.1385 32.3634C16.1385 32.3634 16.9098 31.4929 16.1804 32.3074V32.3098Z" fill="#66BFFF"/>
</svg>
