<svg xmlns="http://www.w3.org/2000/svg" xmlns:xlink="http://www.w3.org/1999/xlink" viewBox="0 0 378.56 410.35"><defs><style>.a{fill:url(#a);}</style><linearGradient id="a" x1="152.32" y1="242.1" x2="289.57" y2="104.85" gradientUnits="userSpaceOnUse"><stop offset="0" stop-color="#75cddd"/><stop offset="0.24" stop-color="#72c9dc"/><stop offset="0.5" stop-color="#68bcd8"/><stop offset="0.77" stop-color="#59a6d3"/><stop offset="1" stop-color="#478ecc"/></linearGradient></defs><title>sharazhAgileLogoРесурс 8</title><path class="a" d="M251.78,302.9c-.15-.36-.29-.72-.45-1.07C251.33,301.83,257.69,319.93,251.78,302.9Zm52.14-86.51c-4.5-.73-11.1-4.88-18-5.51a52.89,52.89,0,0,1-7.55-1.42c9.77-3.17,20.33-6.68,31.79-10.25a3.51,3.51,0,0,0,.68-.16l.4-.22c18.36-4.49,47.87-16.06,58.26-31.27,18.32-26.82,6.83-54.86-15.6-76.3-22.6-21.61-52.91-24.56-68.54,10a4.29,4.29,0,0,1-.41-.23c-.08,0-.07.08-.08.11-1,2.06-2.23,4.25-3.15,6.31a57.31,57.31,0,0,0-2.55,6.16c-4.8,8-3.16,8.81-6.61,14.92-40.31,71.47-53.34,22.73-28.19-5.61,2.27-2.56,4.11-4.63,5.57-6.29,12.81-16.39,30.86-33.79,28.68-54.91-2.9-28-22.39-49.3-49.61-54.82a84.83,84.83,0,0,1-14.39-4.24c-15-6-35.76-.66-53.92,4.11C130.43,14.72,112.05,39,133.32,70.41c-.21.12-.39.33-.37.36,1.22,2,2.46,4.13,3.73,6a58.18,58.18,0,0,0,3.91,5.4l0,.06a34.17,34.17,0,0,1,3.53,11.32,93.16,93.16,0,0,0,4.82,19.9c1.56,4.28,1.17,12.06,4,18.42,1.71,3.82,2.77,8.62,4.54,14.8-8.64-.71-22.06-12.93-27.22-30l-2.45-8.08c-7.26-19.49-12.63-44-31.76-53.15-34.93-16.77-69.26,9.8-86.28,47.63C-7.51,141.6,27.73,183.85,72.3,193c4.46.91,10.88,5.32,17.79,6.23,4.36.58,9.25,2.32,15.9,4.14l2.67.73C96,208.57,81.89,214,66,219.69a3,3,0,0,0-.67.18l-.39.24c-18.16,5.23-47.19,18-57,33.59-17.22,27.52-4.62,55.08,18.65,75.6C50.1,350,80.51,351.72,94.73,316.55l.43.21c.07,0,.06-.08.07-.11.94-2.1,2.06-4.34,2.9-6.43a58.08,58.08,0,0,0,2.3-6.26c4.47-8.17,2.8-8.93,6-15.17,37.41-73,52.38-24.86,28.4,4.47l-5.32,6.51c-12.14,16.9-29.48,35-26.45,56C107,383,128.94,397.84,156,401.63a84.57,84.57,0,0,1,18.81,5c14.23,5.52,31.33,4.5,48.29-.69,29.9-9.15,18.29-74.85,17-76.12l0-.07a34,34,0,0,1-4-11.17,92.61,92.61,0,0,0-5.62-19.68c-1.73-4.22-1.65-12-4.74-18.24-1.86-3.76-3.12-8.51-5.12-14.61,8.66.36,22.55,12,28.39,28.85,1.14,3.26,2.05,5.88,2.77,8,8,19.18,14.39,43.41,33.87,51.82,35.57,15.36,68.81-12.57,84.3-51C385.72,264.5,348.81,223.7,303.92,216.39ZM95.16,316.76h0S95.38,316.87,95.16,316.76ZM65.31,219.89l0,0C65.46,219.8,65.3,219.9,65.31,219.89Zm64.2,79.88.65-.92S118.05,313.76,129.51,299.77Zm3.4-229.12h0S132.69,70.77,132.91,70.65Zm-5,38,.41,1.08S122.64,91.35,127.86,108.61Zm183,90.42-.05,0C310.7,199.11,310.86,199,310.86,199Zm-61-82.39-.69.89S261.92,103.12,249.91,116.64Z"/></svg>